<svg width="35" height="35" fill="none" xmlns="http://www.w3.org/2000/svg"><path d="M18.164 12.056c0-2.426-1.446-6.199-4.235-6.199-.876 0-1.815.438-2.354 1.112-.573.709-.739 1.615-.739 2.494 0 2.256 1.31 5.994 4.202 5.994.84 0 1.745-.402 2.285-.941.773-.778.84-1.853.84-2.46zm-1.816 8.86c-.268-.034-.436-.034-.772-.034-.304 0-2.12.066-3.53.54-.74.269-2.89 1.078-2.89 3.47 0 2.392 2.32 4.112 5.916 4.112 3.227 0 4.942-1.554 4.942-3.64 0-1.723-1.11-2.629-3.666-4.448z" fill="#EDC5A2"/><path d="M17.5 0C7.835 0 0 7.835 0 17.5S7.835 35 17.5 35 35 27.165 35 17.5 27.165 0 17.5 0zm-4.077 30.415c-4.875 0-7.227-2.323-7.227-4.818 0-1.212.604-2.928 2.588-4.108 2.083-1.28 4.908-1.448 6.422-1.552-.472-.606-1.008-1.246-1.008-2.29 0-.572.168-.909.334-1.313-.37.034-.738.067-1.075.067-3.562 0-5.579-2.663-5.579-5.29 0-1.548.705-3.267 2.15-4.514 1.917-1.583 4.537-2.013 6.354-2.013h6.623L20.82 5.958h-2.082c.772.64 2.384 1.987 2.384 4.548 0 2.491-1.41 3.673-2.822 4.784-.437.437-.942.909-.942 1.65 0 .74.505 1.144.874 1.45l1.211.94c1.48 1.246 2.824 2.392 2.824 4.719 0 3.168-3.062 6.366-8.843 6.366zM27.93 17.088v3.389h-1.663v-3.389h-3.364v-1.682h3.364V12.04h1.663v3.367h3.38v1.682h-3.38z" fill="#EDC5A2"/></svg>