<svg width="149" height="45" viewBox="0 0 149 45" fill="none" xmlns="http://www.w3.org/2000/svg">
<path fill-rule="evenodd" clip-rule="evenodd" d="M41.9883 35.0566H42.9473L44.7967 30.3943H51.7481L53.5776 35.0566H54.533L48.801 20.5193H47.825L41.9883 35.0566ZM45.0789 29.6204L48.3107 21.395H48.3513L51.4615 29.6204H45.0862H45.0789ZM56.1361 24.5915H55.3837V38.8033H56.1361V32.8781H56.1767C56.4275 33.6578 56.957 34.3176 57.6639 34.7312C58.3758 35.1193 59.1763 35.3155 59.987 35.3007C60.7044 35.3175 61.4169 35.1786 62.0754 34.8935C62.6461 34.6374 63.1486 34.2505 63.542 33.7641C63.9433 33.2544 64.2378 32.669 64.408 32.043C64.6052 31.3271 64.7013 30.5872 64.6935 29.8446C64.6967 29.1357 64.6008 28.4298 64.4088 27.7474C64.2348 27.114 63.9416 26.5196 63.5449 25.996C63.1538 25.4905 62.6535 25.0799 62.0813 24.7951C61.432 24.4832 60.7181 24.3297 59.998 24.3473C59.0344 24.3271 58.0959 24.6559 57.3556 25.2731C57.0598 25.5191 56.8057 25.8113 56.6031 26.1384C56.4342 26.4066 56.2978 26.6938 56.1966 26.9942H56.1361V24.5915V24.5915ZM58.1433 34.2318C57.6668 33.9843 57.2608 33.6201 56.963 33.1732C56.6607 32.7084 56.4499 32.1901 56.3419 31.6462C56.2178 31.0538 56.1562 30.45 56.1582 29.8447C56.1561 29.2381 56.2245 28.6333 56.3618 28.0425C56.4861 27.4934 56.7112 26.9721 57.0257 26.5051C57.3325 26.0565 57.741 25.6866 58.2178 25.4259C59.3484 24.8793 60.6676 24.8831 61.795 25.4362C62.2789 25.7038 62.6938 26.0804 63.007 26.5361C63.3274 27.0078 63.5621 27.5322 63.7005 28.0853C64.003 29.2679 63.9994 30.5081 63.6901 31.689C63.5488 32.2348 63.3069 32.7494 62.9768 33.2064C62.6563 33.6417 62.2391 33.9965 61.7581 34.2429C61.2104 34.5128 60.6054 34.6457 59.995 34.6302C59.3554 34.6511 58.7205 34.5135 58.147 34.2296L58.1433 34.2318ZM67.925 24.5915H67.1725V38.8033H67.925V32.8781H67.9648C68.2161 33.6575 68.7455 34.3172 69.4521 34.7312C70.1639 35.1192 70.9645 35.3155 71.7751 35.3007C72.4925 35.3175 73.205 35.1786 73.8635 34.8935C74.4346 34.6379 74.9371 34.2509 75.3301 33.7641C75.7317 33.2545 76.0263 32.6692 76.1962 32.043C76.3933 31.3271 76.4894 30.5872 76.4816 29.8447C76.4848 29.1357 76.389 28.4298 76.1969 27.7474C76.0229 27.114 75.7297 26.5196 75.333 25.9961C74.9422 25.4903 74.4418 25.0797 73.8694 24.7951C73.2202 24.4831 72.5062 24.3297 71.7862 24.3473C70.8225 24.3271 69.884 24.6559 69.1437 25.2731C68.8499 25.5198 68.5978 25.8122 68.3971 26.1392C68.228 26.4072 68.0915 26.6945 67.9907 26.9949H67.9294V24.5922L67.925 24.5915ZM69.9322 34.2318C69.4557 33.9843 69.0496 33.6201 68.7519 33.1732C68.4499 32.7082 68.2391 32.19 68.1307 31.6462C68.0067 31.0538 67.9451 30.45 67.947 29.8447C67.945 29.2381 68.0133 28.6333 68.1506 28.0425C68.2753 27.4935 68.5004 26.9723 68.8146 26.5051C69.1218 26.0566 69.5305 25.6868 70.0074 25.4258C71.1378 24.8793 72.4567 24.8831 73.5838 25.4362C74.0678 25.704 74.483 26.0805 74.7966 26.5361C75.1164 27.008 75.3509 27.5323 75.4893 28.0853C75.7918 29.2679 75.7883 30.5081 75.479 31.689C75.3377 32.2347 75.0957 32.7494 74.7656 33.2064C74.4443 33.6426 74.0258 33.998 73.5433 34.2444C72.9956 34.5143 72.3905 34.6472 71.7802 34.6317C71.1417 34.6515 70.5082 34.5134 69.9359 34.2296L69.9322 34.2318ZM94.4515 24.6726C94.4327 23.9586 94.2593 23.2571 93.9432 22.6166C93.6606 22.0655 93.2535 21.5878 92.754 21.2216C92.2334 20.8502 91.6472 20.5809 91.0263 20.4278C90.3317 20.2536 89.6178 20.1681 88.9017 20.1733C88.3194 20.1748 87.7393 20.2464 87.174 20.3865C86.6147 20.5195 86.082 20.7467 85.599 21.0586C85.1308 21.3646 84.741 21.7762 84.4607 22.2603C84.157 22.8038 84.0058 23.4194 84.0233 24.0418C83.9987 24.6368 84.1471 25.2262 84.4504 25.7386C84.735 26.1798 85.1177 26.5492 85.5688 26.8178C86.0639 27.1115 86.5975 27.3349 87.1541 27.4818C87.7502 27.645 88.3531 27.7877 88.963 27.9096C89.5866 28.0316 90.193 28.1639 90.7821 28.3065C91.331 28.4342 91.863 28.6256 92.3675 28.8768C92.8123 29.0953 93.1991 29.4161 93.4962 29.8129C93.796 30.2528 93.9456 30.7778 93.9226 31.3097C93.9441 31.8688 93.7991 32.4216 93.5057 32.898C93.2383 33.3086 92.8846 33.6559 92.4693 33.916C92.0503 34.176 91.5896 34.3619 91.1075 34.4656C90.6507 34.5698 90.1839 34.6244 89.7154 34.6286C89.0242 34.6318 88.3351 34.5531 87.6624 34.3941C87.0513 34.2561 86.4742 33.9964 85.9657 33.6305C85.4848 33.2781 85.0976 32.8134 84.8377 32.2768C84.5509 31.6423 84.4318 30.9448 84.4917 30.2511H83.5976C83.5603 31.0701 83.717 31.8863 84.055 32.6332C84.3563 33.264 84.8061 33.8123 85.3659 34.231C85.9493 34.6581 86.613 34.963 87.3171 35.1273C88.1029 35.315 88.9084 35.4072 89.7162 35.4018C90.3016 35.3983 90.8846 35.3267 91.4535 35.1886C92.0395 35.0532 92.5969 34.8151 93.1 34.4855C93.5964 34.1587 94.016 33.728 94.3298 33.2233C94.6719 32.6452 94.8414 31.9811 94.8181 31.3097C94.8409 30.6944 94.6931 30.0847 94.391 29.5481C94.1102 29.0845 93.7237 28.6939 93.263 28.4083C92.7693 28.105 92.2357 27.8719 91.6777 27.7156C91.0876 27.5464 90.4809 27.4006 89.8578 27.2782C89.2485 27.1557 88.6455 27.0268 88.0489 26.8916C87.5016 26.7727 86.9697 26.5915 86.4636 26.3516C86.0272 26.1472 85.6444 25.8442 85.3453 25.4664C85.0464 25.053 84.8962 24.5507 84.9189 24.0411C84.8997 23.5153 85.0338 22.9953 85.3047 22.5443C85.5536 22.1516 85.8915 21.8231 86.291 21.5853C86.6932 21.3467 87.133 21.1781 87.5916 21.0866C88.0227 20.9952 88.4618 20.9473 88.9025 20.9435C89.5235 20.9383 90.1424 21.0172 90.7423 21.1781C91.2675 21.3163 91.761 21.5548 92.1956 21.8804C92.5998 22.1905 92.9297 22.5869 93.1612 23.0408C93.4095 23.5487 93.5447 24.1044 93.5574 24.6696H94.4522L94.4515 24.6726ZM100.691 24.5915H98.4219V21.3345H97.6496V24.5922H95.719V25.2642H97.6496V32.5734C97.6031 33.0512 97.6766 33.5329 97.8635 33.9751C98.0107 34.2908 98.2475 34.5564 98.5444 34.7386C98.8454 34.9141 99.1825 35.0186 99.53 35.044C99.9119 35.0781 100.296 35.0816 100.679 35.0543V34.3823C100.357 34.3973 100.034 34.3907 99.7129 34.3624C99.4602 34.3439 99.2159 34.2633 99.0018 34.1278C98.7996 33.993 98.6462 33.7966 98.5643 33.5679C98.4574 33.2466 98.4091 32.9088 98.4219 32.5705V25.2613H100.698V24.5892L100.691 24.5915ZM101.335 31.9412C101.529 32.5756 101.843 33.1666 102.26 33.6822C102.67 34.1802 103.183 34.583 103.764 34.8625C105.071 35.4458 106.564 35.4458 107.87 34.8625C108.451 34.583 108.965 34.1802 109.374 33.6822C109.792 33.1666 110.106 32.5756 110.3 31.9412C110.512 31.2558 110.619 30.5417 110.615 29.824C110.619 29.1094 110.513 28.3984 110.3 27.7164C110.103 27.0835 109.789 26.4933 109.374 25.9761C108.967 25.4731 108.453 25.0663 107.87 24.7847C106.564 24.2015 105.071 24.2015 103.764 24.7847C103.181 25.0663 102.668 25.4731 102.26 25.9761C101.846 26.4933 101.532 27.0835 101.335 27.7164C101.121 28.3983 101.015 29.1094 101.02 29.824C101.017 30.5424 101.124 31.2571 101.339 31.9427L101.335 31.9412ZM102.057 28.0218C102.221 27.4678 102.483 26.9475 102.83 26.4851C103.165 26.0394 103.595 25.6742 104.09 25.4162C105.18 24.8861 106.454 24.8861 107.545 25.4162C108.039 25.6742 108.47 26.0394 108.805 26.4851C109.151 26.9478 109.413 27.468 109.578 28.0218C109.93 29.1974 109.93 30.4505 109.578 31.6262C109.413 32.18 109.151 32.7003 108.805 33.1628C108.47 33.6085 108.039 33.9737 107.545 34.2318C106.454 34.7619 105.18 34.7619 104.09 34.2318C103.595 33.9737 103.165 33.6085 102.83 33.1628C102.483 32.7006 102.221 32.1802 102.057 31.6262C101.705 30.4505 101.707 29.1974 102.061 28.0225L102.057 28.0218ZM113.197 24.5915H112.425V35.0566H113.197V29.3357C113.205 28.9942 113.239 28.6539 113.299 28.3177C113.346 28.0528 113.42 27.7935 113.52 27.5438C113.611 27.319 113.731 27.1068 113.876 26.9123C114.031 26.7068 114.197 26.5098 114.374 26.3222C114.785 25.8985 115.3 25.5895 115.868 25.4259C116.32 25.2965 116.793 25.2551 117.26 25.3041V24.5303C116.798 24.5156 116.336 24.567 115.888 24.683C115.466 24.7907 115.063 24.9587 114.689 25.1817C114.343 25.3877 114.034 25.6491 113.774 25.9555C113.535 26.2345 113.359 26.5615 113.258 26.9145H113.197V24.5937V24.5915ZM126.815 29.9258C126.815 29.8719 126.815 29.8004 126.826 29.7119C126.836 29.6233 126.835 29.5459 126.835 29.478C126.84 28.805 126.741 28.1354 126.54 27.4929C126.357 26.9006 126.064 26.3481 125.676 25.864C125.294 25.3947 124.811 25.0166 124.264 24.7574C123.656 24.4762 122.992 24.337 122.322 24.3502C121.601 24.3326 120.886 24.4898 120.239 24.8083C119.663 25.1016 119.159 25.5188 118.763 26.03C118.36 26.5592 118.059 27.1599 117.878 27.8005C117.68 28.485 117.58 29.1946 117.583 29.9074C117.578 30.6266 117.673 31.3431 117.868 32.0356C118.039 32.6574 118.333 33.2388 118.732 33.7456C119.121 34.2297 119.614 34.6196 120.175 34.8861C120.809 35.1765 121.501 35.319 122.197 35.3029C123.295 35.3568 124.375 35.0096 125.236 34.3262C126.047 33.5925 126.575 32.5985 126.731 31.5163H125.958C125.784 32.392 125.342 33.1921 124.695 33.8069C123.999 34.3858 123.111 34.6804 122.208 34.6316C121.626 34.6436 121.05 34.5172 120.527 34.2628C120.054 34.0272 119.643 33.6856 119.324 33.2647C118.995 32.8246 118.75 32.3277 118.6 31.7988C118.435 31.23 118.353 30.6405 118.355 30.0483V29.9258H126.812H126.815ZM118.38 29.2537C118.421 28.712 118.532 28.1777 118.709 27.664C118.873 27.1697 119.129 26.7106 119.463 26.3103C119.795 25.9189 120.204 25.6 120.665 25.3734C121.18 25.1275 121.745 25.0055 122.316 25.0171C122.856 25.0073 123.391 25.1261 123.876 25.3638C124.323 25.5884 124.718 25.9037 125.037 26.2896C125.362 26.6872 125.607 27.1435 125.76 27.6337C125.926 28.1584 126.022 28.7026 126.046 29.2523H118.383L118.38 29.2537Z" fill="white"/>
<path fill-rule="evenodd" clip-rule="evenodd" d="M27.004 14.2061C30.233 14.2061 32.2978 17.3045 32.2978 17.3045C30.3855 18.4324 29.1936 20.4701 29.1478 22.6897C29.1384 25.2198 30.7235 27.4815 33.1049 28.3361C33.1049 28.3361 29.9814 35.6933 26.4744 35.6933C24.5032 35.6933 24.3704 34.5668 21.7531 34.5668C19.4772 34.5668 18.7093 35.6933 16.9757 35.6933C13.6678 35.6933 9.39355 28.522 9.39355 22.6897C9.39355 16.6317 13.7202 14.2061 16.4335 14.2061C18.8155 14.2061 19.8077 15.5974 21.7265 15.5974C23.3384 15.5974 24.6087 14.2061 27.004 14.2061ZM26.4482 8.02856C26.924 10.9978 24.2115 14.6679 20.9693 14.5506C20.4927 10.7706 23.988 8.22774 26.4482 8.02856V8.02856Z" fill="white"/>
</svg>
