<svg width="149" height="45" viewBox="0 0 149 45" fill="none" xmlns="http://www.w3.org/2000/svg">
<path fill-rule="evenodd" clip-rule="evenodd" d="M113.036 35.5818H111.907V23.1397H113.036V35.5818ZM122.071 34.4509V28.7949C122.071 28.7949 121.757 26.4755 118.334 26.4755C114.91 26.4755 114.813 28.9837 114.813 28.9837H115.898C115.898 28.9837 115.845 27.2693 118.308 27.2693C120.77 27.2693 120.941 28.7949 120.941 28.7949V29.9265H118.683C115.811 29.9265 114.443 31.5377 114.443 33.0832C114.443 34.6287 115.303 35.7264 117.408 35.7264C118.695 35.7096 119.94 35.2604 120.941 34.4509V35.5818H122.071V34.4509V34.4509ZM120.941 32.1884C120.941 33.9729 118.585 34.8677 117.5 34.8677C116.415 34.8677 115.515 34.3513 115.515 33.1629C115.515 31.9744 116.962 31.0575 118.687 31.0575H120.945V32.1884H120.941ZM123.2 26.5331H124.33L127.21 34.2111L129.975 26.5331H131.105C131.105 26.5331 128.105 36.9192 127.717 37.8443C127.329 38.7694 125.719 39.215 124.581 39.215C124.222 39.1947 123.872 39.0922 123.558 38.9155L123.841 38.1224C124.079 38.2277 124.339 38.2762 124.599 38.2641C125.102 38.2641 125.975 37.1007 125.975 37.1007L126.611 35.5855L123.2 26.5331ZM106.644 26.4756C105.62 26.4057 104.629 26.8516 104.002 27.664V26.5331H102.873V38.9752H104.002V34.4509C104.037 34.5084 104.486 35.7264 106.67 35.7264C108.894 35.7264 110.614 34.2989 110.614 31.0302C110.614 27.7614 108.553 26.4756 106.644 26.4756V26.4756ZM106.488 34.9068C104.664 34.9068 104.04 32.2459 104.005 32.1884V29.9266C104.04 29.8786 104.844 27.3218 106.621 27.3218C108.235 27.3218 109.585 28.9602 109.585 31.101C109.585 33.2418 108.338 34.9068 106.488 34.9068ZM55.2315 24.1422C55.2315 24.1422 53.7627 22.6498 50.089 22.6498C48.2597 22.5759 46.478 23.2428 45.1468 24.4996C43.8157 25.7565 43.0477 27.4971 43.0166 29.3275C43.0166 32.1662 44.9818 35.7507 49.8684 35.7507C51.6896 35.6832 53.4934 35.3713 55.2315 34.8234V32.6214C55.2315 31.5392 56.5764 31.0575 56.5764 31.0575H52.0594L50.6762 31.9302C51.5704 31.8018 52.4737 31.7471 53.3769 31.7664V34.4959C52.6973 34.83 51.9483 34.9983 51.1911 34.9872C47.7109 34.916 44.9229 32.0818 44.9088 28.6009C44.9088 24.8799 47.5719 23.3057 49.8861 23.3057C51.2835 23.3242 52.604 23.9484 53.5053 25.0164L53.0826 25.7076L53.7627 25.5254L55.2315 24.1422ZM61.4496 26.5102C60.1897 26.467 58.9673 26.9427 58.0681 27.8261C57.1688 28.7094 56.6714 29.9232 56.6921 31.1836C56.7201 33.6284 58.714 35.5933 61.1589 35.5855C64.0139 35.5855 66.0145 33.6851 66.0145 31.0117C66.0564 29.7938 65.5863 28.614 64.7184 27.7586C63.8504 26.9033 62.6638 26.4505 61.4467 26.5102H61.4496ZM61.6441 35.0035C59.4804 35.0035 58.4587 31.6683 58.4587 29.9812C58.4587 28.294 59.6051 27.0923 60.9256 27.0923C62.8097 27.0923 64.1103 29.3113 64.1103 31.9014C64.1073 32.7933 63.8048 35.0035 61.6412 35.0035H61.6441ZM71.6521 26.5146C70.3928 26.4716 69.171 26.9471 68.2721 27.83C67.3731 28.7129 66.8757 29.9259 66.8961 31.1858C66.924 33.6296 68.9174 35.5937 71.3614 35.5855C74.2148 35.5855 76.214 33.6866 76.214 31.0117C76.256 29.7947 75.7862 28.6158 74.9187 27.7612C74.0512 26.9066 72.8653 26.4545 71.6491 26.5146H71.6521ZM71.8458 35.0042C69.6836 35.0042 68.6627 31.6705 68.6627 29.9878C68.6627 28.3051 69.8083 27.1004 71.1281 27.1004C73.0114 27.1004 74.312 29.3187 74.312 31.9066C74.309 32.7948 74.0058 35.0042 71.8429 35.0042H71.8458ZM83.7432 34.9422C82.8071 34.2975 82.6241 33.9891 82.6241 33.7095C82.6241 33.4299 82.6337 33.2042 83.2991 32.5734C84.0803 31.9827 84.5494 31.068 84.5731 30.0889C84.6084 29.0923 84.1633 28.1394 83.3766 27.5268L84.5148 27.4884L85.6531 26.8142H81.2158C79.1166 26.741 77.3432 28.3577 77.2226 30.4548C77.2226 31.7826 78.3506 33.3724 80.5792 33.3724C80.7094 33.3741 80.8392 33.358 80.965 33.3244C80.8759 33.5414 80.83 33.7737 80.83 34.0083C80.8739 34.4596 81.0674 34.8834 81.3796 35.2122C81.3796 35.2122 76.2385 35.2174 76.2385 38.5061C76.2385 40.4942 78.4863 41.2407 80.3284 41.2407C82.1704 41.2407 85.3248 40.2493 85.3248 37.716C85.3055 36.5813 84.7078 35.5352 83.7403 34.9422H83.7432ZM81.3028 32.7947C79.9572 32.7947 78.8861 30.7867 78.8861 29.5732C78.8861 28.3597 79.4939 27.4929 80.5643 27.4929C81.6347 27.4929 82.9088 28.7204 82.9088 30.9601C82.9058 31.7398 82.6454 32.7947 81.2998 32.7947H81.3028ZM81.2018 40.4226C80.5791 40.4226 77.9315 40.177 77.9315 38.0819C77.9315 35.9868 80.9841 35.795 81.3382 35.795C81.5588 35.7957 81.779 35.8127 81.997 35.8459C82.9376 36.6766 83.9792 37.0882 83.9792 38.388C83.9763 40.2493 81.8207 40.4263 81.1988 40.4263L81.2018 40.4226ZM85.9368 23.1397L86.6944 21.994L89.325 22.008C88.6759 22.354 88.2126 22.6572 88.1956 24.2706C88.1786 25.8839 88.1956 33.32 88.1956 33.32C88.2979 34.0321 88.8005 34.622 89.4873 34.836C89.7044 34.8258 89.9216 34.8547 90.1284 34.9216L89.325 35.5855H85.9368C85.9368 35.5855 87.0603 34.8861 87.0662 34.4546V23.1397H85.9368V23.1397ZM97.7405 28.8694C97.3636 27.3721 95.9651 26.3622 94.4252 26.4756C93.2511 26.4524 92.1197 26.9162 91.2998 27.757C90.4798 28.5977 90.0445 29.7404 90.0971 30.9136C90.0971 33.1127 91.4036 35.5855 94.6591 35.5855C95.977 35.605 97.2188 34.9694 97.9736 33.8888C97.2676 34.2804 96.4794 34.5005 95.6727 34.5313C93.8601 34.5313 91.754 32.6236 91.754 29.8203C91.754 27.9318 93.073 27.1727 93.8992 27.1727C94.3842 27.1171 94.8685 27.2814 95.2196 27.6206C95.5706 27.9597 95.7514 28.4382 95.7125 28.9247C95.565 29.1881 91.813 30.7159 91.813 30.7159L93.3142 30.6377L97.7405 28.8694Z" fill="white"/>
<path fill-rule="evenodd" clip-rule="evenodd" d="M35.4039 23.3374L30.2702 26.2019L26.1553 22.1069L30.2702 18.0119L35.4039 20.8764C35.9049 21.0796 36.2326 21.5663 36.2326 22.1069C36.2326 22.6475 35.9049 23.1342 35.4039 23.3374V23.3374ZM25.4879 21.4408L11.9746 7.9939C12.3714 8.06444 12.7517 8.20749 13.0967 8.41586C14.7595 9.35127 23.3899 14.17 29.4147 17.5332L25.4879 21.4408ZM10.9118 35.9448C10.5732 35.5813 10.3695 35.1126 10.335 34.6169V9.5903C10.3703 9.09596 10.5739 8.62864 10.9118 8.26612L24.8183 22.104L10.9118 35.9448ZM25.4879 22.7731L29.4147 26.683C23.3899 30.0462 14.7595 34.8648 13.0967 35.8002C12.7517 36.0086 12.3714 36.1517 11.9746 36.2222L25.4879 22.7731Z" fill="white"/>
</svg>
