<svg width="36" height="35" viewBox="0 0 36 35" fill="none" xmlns="http://www.w3.org/2000/svg">
<path d="M18.0794 0C8.334 0 0.433594 7.86792 0.433594 17.5733C0.433594 26.2778 6.79526 33.4867 15.1365 34.8826V21.2395H10.8798V16.3299H15.1365V12.7098C15.1365 8.50939 17.7125 6.22042 21.4756 6.22042C23.2779 6.22042 24.8267 6.35416 25.2764 6.41307V10.8036L22.6664 10.8049C20.6203 10.8049 20.2259 11.773 20.2259 13.194V16.3274H25.108L24.4712 21.237H20.2259V35C28.9565 33.9418 35.725 26.5493 35.725 17.5682C35.725 7.86792 27.8246 0 18.0794 0Z" fill="#EDC5A2"/>
</svg>
