<svg width="35" height="35" viewBox="0 0 35 35" fill="none" xmlns="http://www.w3.org/2000/svg">
<path d="M18.1638 12.0557C18.1638 9.6299 16.7176 5.85742 13.9294 5.85742C13.0529 5.85742 12.1137 6.29497 11.5745 6.96919C11.0023 7.67778 10.8362 8.58438 10.8362 9.46305C10.8362 11.7188 12.146 15.4573 15.0383 15.4573C15.878 15.4573 16.7828 15.0552 17.3234 14.5156C18.0965 13.7382 18.1638 12.6626 18.1638 12.0557Z" fill="#EDC5A2"/>
<path d="M16.3477 20.9155C16.0799 20.8818 15.9116 20.8818 15.5757 20.8818C15.2724 20.8818 13.4567 20.9481 12.0456 21.4229C11.3066 21.6907 9.15576 22.4999 9.15576 24.8913C9.15576 27.2839 11.4753 29.0036 15.0716 29.0036C18.2994 29.0036 20.0142 27.4504 20.0142 25.3647C20.0138 23.6414 18.9046 22.7351 16.3477 20.9155Z" fill="#EDC5A2"/>
<path d="M17.5 0C7.83499 0 0 7.83499 0 17.5C0 27.165 7.83499 35 17.5 35C27.165 35 35 27.165 35 17.5C35 7.83499 27.165 0 17.5 0ZM13.4232 30.4151C8.54788 30.4151 6.19616 28.092 6.19616 25.5974C6.19616 24.3854 6.8002 22.6685 8.78384 21.4887C10.867 20.2083 13.6924 20.0411 15.2059 19.9369C14.7337 19.3311 14.1976 18.6913 14.1976 17.6472C14.1976 17.0753 14.3659 16.7381 14.5321 16.3335C14.1618 16.3678 13.7938 16.4008 13.4572 16.4008C9.89524 16.4008 7.87831 13.7375 7.87831 11.1105C7.87831 9.56297 8.58333 7.84358 10.0284 6.59719C11.9455 5.01386 14.565 4.58419 16.3818 4.58419H23.0051L20.8192 5.9577H18.7367C19.5094 6.59719 21.1207 7.94455 21.1207 10.5061C21.1207 12.9971 19.7106 14.1794 18.2995 15.2897C17.8616 15.7269 17.3571 16.1985 17.3571 16.9407C17.3571 17.6801 17.862 18.084 18.2308 18.3898L19.4421 19.3307C20.9216 20.5764 22.2664 21.7222 22.2657 24.0489C22.2654 27.2166 19.2043 30.4151 13.4232 30.4151ZM27.9302 17.0882V20.4769H26.2667V17.0882H22.9034V15.4064H26.2667V12.0386H27.9302V15.4064H31.3095V17.0882H27.9302Z" fill="#EDC5A2"/>
</svg>
