<svg width="150" height="46" fill="none" xmlns="http://www.w3.org/2000/svg"><rect x=".791" y=".631" width="148.279" height="45" rx="6.27" stroke="url(#paint0_linear_3405_9654)" stroke-width=".738"/><path fill-rule="evenodd" clip-rule="evenodd" d="M44.715 16.828h2.62a4.137 4.137 0 001.677-.311c.45-.192.85-.485 1.169-.854.315-.375.548-.813.683-1.284.15-.52.225-1.06.221-1.6a6.363 6.363 0 00-.175-1.494 3.445 3.445 0 00-.605-1.29 3.05 3.05 0 00-1.145-.905 4.21 4.21 0 00-1.802-.339h-2.642v8.077zm.497-.43V9.181h2.066c.222.002.443.015.664.04a3.4 3.4 0 01.737.164c.252.087.492.206.712.356.243.169.45.384.61.634.193.306.338.64.429.99.118.462.173.937.164 1.414a4.6 4.6 0 01-.288 1.748c-.164.42-.42.799-.75 1.106-.298.27-.65.471-1.034.59a3.83 3.83 0 01-1.134.176h-2.176zm6.724-1.3c.108.352.284.68.517.967.227.276.512.5.835.655a2.795 2.795 0 002.282 0c.322-.155.607-.379.835-.655a2.9 2.9 0 00.516-.968c.118-.38.177-.777.175-1.176a3.834 3.834 0 00-.175-1.17 2.957 2.957 0 00-.516-.968 2.447 2.447 0 00-.835-.664 2.797 2.797 0 00-2.282 0 2.44 2.44 0 00-.835.664 2.928 2.928 0 00-.517.967 3.834 3.834 0 00-.174 1.17c-.003.4.056.797.174 1.178zm.402-2.178c.09-.308.236-.597.428-.854.187-.248.426-.45.7-.594a2.2 2.2 0 011.918 0c.275.144.514.347.7.594.193.257.338.546.43.854a3.499 3.499 0 010 2.002 2.713 2.713 0 01-.43.854 2.109 2.109 0 01-.7.59 2.2 2.2 0 01-1.918 0 2.101 2.101 0 01-.7-.59 2.713 2.713 0 01-.428-.854 3.486 3.486 0 010-2.002zm5.477-1.906h-.464l1.845 5.814h.537l1.604-5.271h.022l1.593 5.271h.53l1.864-5.814h-.475l-1.623 5.316h-.023l-1.591-5.316h-.577l-1.58 5.316h-.023l-1.64-5.316zm7.745 5.814h.429v-3.145a3.226 3.226 0 01.142-.978c.084-.281.224-.543.411-.77a1.91 1.91 0 01.655-.502c.277-.125.578-.187.881-.181.321-.018.64.057.92.215.207.127.378.305.497.516.108.194.175.407.198.628.02.18.032.361.034.543v3.676h.43v-3.599c0-.12 0-.262-.013-.424a3.023 3.023 0 00-.067-.503 2.161 2.161 0 00-.186-.517 1.58 1.58 0 00-.937-.786 2.638 2.638 0 00-.865-.125c-.224 0-.448.031-.664.091a2.139 2.139 0 00-1.09.707c-.14.173-.25.37-.321.583h-.023v-1.243h-.43v5.814zm5.488-8.076v8.076h.43V8.752h-.43zm1.734 6.344c.108.353.283.681.516.967.228.277.513.5.836.656a2.792 2.792 0 002.28 0 2.47 2.47 0 00.837-.656 2.85 2.85 0 00.516-.967c.119-.38.178-.778.176-1.177a3.813 3.813 0 00-.176-1.17 2.941 2.941 0 00-.516-.967 2.442 2.442 0 00-.836-.664 2.796 2.796 0 00-2.281 0c-.324.157-.61.383-.836.664a2.941 2.941 0 00-.516.967 3.816 3.816 0 00-.175 1.17c-.003.4.056.797.175 1.179v-.002zm.4-2.178a2.73 2.73 0 01.43-.854 2.09 2.09 0 01.7-.594 2.198 2.198 0 011.918 0c.274.144.513.347.7.594.192.257.337.547.43.854.195.653.195 1.35 0 2.003a2.73 2.73 0 01-.43.854 2.093 2.093 0 01-.7.59 2.198 2.198 0 01-1.918 0 2.094 2.094 0 01-.7-.59 2.73 2.73 0 01-.43-.854 3.486 3.486 0 01.001-2.001v-.002zm10.13 3.06c0 .112.009.224.028.334a.667.667 0 00.108.265.542.542 0 00.231.182c.131.05.271.073.412.068.118 0 .236-.016.35-.046v-.363c-.104.02-.21.03-.316.034a.354.354 0 01-.226-.063.342.342 0 01-.113-.163.819.819 0 01-.04-.227c0-.083-.005-.166-.005-.249v-3.379a1.356 1.356 0 00-.48-1.08 2.322 2.322 0 00-1.53-.413 2.446 2.446 0 00-1.623.48 1.904 1.904 0 00-.615 1.443h.43a1.521 1.521 0 01.524-1.165 1.95 1.95 0 011.259-.384c.251-.005.503.025.746.09.18.05.349.134.496.25a.99.99 0 01.373.804c.002.17-.01.34-.034.51a.578.578 0 01-.17.332.93.93 0 01-.4.204 3.918 3.918 0 01-.729.108l-.664.057a6.732 6.732 0 00-.728.113 2.19 2.19 0 00-.689.265c-.472.276-.75.794-.717 1.34-.037.47.151.93.508 1.24.42.291.925.433 1.435.401.26.002.518-.034.768-.105a2.31 2.31 0 00.627-.284c.176-.113.334-.252.468-.412a1.76 1.76 0 00.295-.492h.023v.305h-.002zm0-1.369c-.01.147-.03.292-.062.435-.052.239-.15.464-.288.664-.171.25-.394.458-.655.611a2.193 2.193 0 01-1.163.267 1.802 1.802 0 01-1.118-.312 1.128 1.128 0 01-.407-.959c-.01-.232.045-.462.159-.664a1.17 1.17 0 01.411-.401c.178-.1.37-.172.57-.21.212-.04.423-.073.634-.095l.722-.068c.24-.02.48-.054.717-.102a.812.812 0 00.48-.26v1.096-.002zm6.764 2.218h.43V8.752h-.43v3.563h-.023a1.992 1.992 0 00-.83-1.063 2.516 2.516 0 00-1.316-.373 2.569 2.569 0 00-1.14.237c-.315.151-.59.372-.808.645a2.742 2.742 0 00-.48.969 4.62 4.62 0 00-.01 2.352c.089.348.242.675.45.967.206.279.472.506.78.664a2.693 2.693 0 002.45-.096 2.64 2.64 0 00.904-1.033h.022v1.245-.002zm-3.128-.458a1.973 1.973 0 01-.672-.59 2.65 2.65 0 01-.395-.855 3.757 3.757 0 01-.13-.99 4.272 4.272 0 01.118-1.007c.073-.308.203-.6.385-.86.175-.246.404-.45.671-.593.304-.155.642-.231.983-.221.336-.008.668.07.965.226.27.146.5.353.672.605.178.263.31.553.39.86a3.786 3.786 0 010 1.968 2.64 2.64 0 01-.395.853 2.03 2.03 0 01-.664.6 1.918 1.918 0 01-.954.226 2.01 2.01 0 01-.973-.22l-.001-.002zm7.968-1.273c.108.353.283.681.516.967.228.277.513.5.836.656a2.792 2.792 0 002.28 0 2.47 2.47 0 00.837-.656 2.85 2.85 0 00.516-.967c.119-.38.178-.778.176-1.177a3.844 3.844 0 00-.176-1.17 2.941 2.941 0 00-.516-.967 2.443 2.443 0 00-.836-.664 2.796 2.796 0 00-2.281 0c-.324.157-.61.383-.836.664a2.94 2.94 0 00-.516.967 3.81 3.81 0 00-.176 1.17c-.002.4.057.797.176 1.179v-.002zm.4-2.178a2.73 2.73 0 01.429-.854 2.09 2.09 0 01.7-.594 2.199 2.199 0 011.918 0c.275.144.514.347.7.594.192.257.338.547.43.854.195.653.195 1.35 0 2.003a2.73 2.73 0 01-.43.854 2.093 2.093 0 01-.7.59 2.198 2.198 0 01-1.918 0 2.094 2.094 0 01-.7-.59 2.73 2.73 0 01-.43-.854 3.486 3.486 0 01.001-2.001v-.002zm5.781 3.91h.429v-3.145a3.274 3.274 0 01.141-.978 2.22 2.22 0 01.413-.77c.179-.213.402-.384.655-.502a2.04 2.04 0 01.88-.181 1.69 1.69 0 01.921.215c.207.127.377.305.497.516.107.194.174.407.197.628.021.18.032.361.034.543v3.677h.428v-3.6c0-.12-.004-.262-.012-.424a3.047 3.047 0 00-.067-.503 2.2 2.2 0 00-.186-.517 1.591 1.591 0 00-.356-.458 1.693 1.693 0 00-.582-.328 2.631 2.631 0 00-.864-.125c-.224 0-.448.031-.664.091a2.136 2.136 0 00-1.089.707 1.83 1.83 0 00-.322.583h-.023v-1.243h-.429v5.814h-.001zm11.586-5.814h-1.264v-1.81h-.429v1.81h-1.073v.373h1.073v4.057c-.027.266.014.535.118.78a.99.99 0 00.378.425c.168.097.355.155.548.17.212.018.426.02.638.006v-.37a3.994 3.994 0 01-.536-.012.858.858 0 01-.395-.13.629.629 0 01-.243-.311 1.555 1.555 0 01-.079-.554v-4.057h1.264v-.377zm.517-2.263v8.077h.429v-3.145a3.241 3.241 0 01.141-.978 2.22 2.22 0 01.413-.77 1.908 1.908 0 011.542-.681c.321-.017.64.057.92.215.207.127.378.305.497.516.107.194.175.408.198.628.022.221.034.4.034.543v3.677h.428V13.23c0-.12-.003-.262-.011-.424a3.044 3.044 0 00-.067-.503 2.154 2.154 0 00-.186-.517 1.599 1.599 0 00-.357-.458A1.692 1.692 0 00116.6 11a2.634 2.634 0 00-.864-.125c-.224 0-.448.031-.664.091a2.14 2.14 0 00-1.089.707c-.142.173-.251.37-.323.583h-.022V8.752h-.438zm11.439 5.226c0-.03 0-.07.006-.119.005-.05.005-.092.005-.13a3.617 3.617 0 00-.163-1.102 2.739 2.739 0 00-.481-.906 2.256 2.256 0 00-.784-.616 2.449 2.449 0 00-1.078-.227 2.485 2.485 0 00-1.158.255 2.445 2.445 0 00-.819.678c-.224.295-.39.628-.491.984-.11.38-.165.775-.164 1.171-.003.4.05.796.158 1.18.096.346.259.67.48.95.216.27.491.486.802.634.352.162.737.241 1.124.232.61.03 1.21-.163 1.688-.543.45-.407.744-.96.83-1.56h-.429a2.4 2.4 0 01-.702 1.272c-.386.321-.88.485-1.381.458a2.044 2.044 0 01-.935-.204 1.909 1.909 0 01-.664-.555 2.494 2.494 0 01-.402-.811 3.443 3.443 0 01-.136-.973v-.067h4.698l-.004-.001zm-4.686-.373c.023-.302.084-.6.182-.885.091-.275.233-.53.418-.753.185-.217.412-.394.668-.52.288-.135.604-.201.922-.192a1.888 1.888 0 011.512.71c.181.22.317.473.402.746.092.291.145.593.159.899h-4.258l-.005-.005zM42.988 36.057h.96l1.849-4.663h6.951l1.83 4.663h.955l-5.732-14.538h-.976l-5.837 14.538zm3.09-5.437l3.233-8.225h.04l3.11 8.225H46.08zm11.058-5.029h-.752v14.212h.752v-5.925h.04a3.33 3.33 0 001.488 1.853 4.676 4.676 0 002.323.57 4.964 4.964 0 002.088-.407 3.985 3.985 0 001.467-1.13 4.83 4.83 0 00.866-1.721 7.963 7.963 0 00.285-2.198 7.617 7.617 0 00-.284-2.098 5.165 5.165 0 00-.864-1.751 4.239 4.239 0 00-1.464-1.201 4.555 4.555 0 00-2.083-.448 3.996 3.996 0 00-2.642.926c-.296.246-.55.538-.753.865a4.005 4.005 0 00-.406.856h-.06v-2.403zm2.007 9.64a3.18 3.18 0 01-1.18-1.058 4.359 4.359 0 01-.621-1.527 8.647 8.647 0 01-.184-1.801 7.842 7.842 0 01.204-1.802c.124-.55.35-1.07.664-1.538a3.45 3.45 0 011.192-1.08 4.085 4.085 0 013.577.011c.484.268.899.644 1.212 1.1.32.472.555.996.694 1.55a7.19 7.19 0 01-.01 3.603 4.532 4.532 0 01-.714 1.517 3.49 3.49 0 01-1.219 1.037 3.772 3.772 0 01-1.763.387 3.88 3.88 0 01-1.848-.4l-.004.002zm9.782-9.64h-.752v14.212h.752v-5.925h.04c.251.78.78 1.44 1.487 1.853a4.677 4.677 0 002.323.57 4.964 4.964 0 002.088-.407 3.968 3.968 0 001.467-1.13c.402-.51.696-1.095.866-1.721a7.967 7.967 0 00.286-2.198 7.614 7.614 0 00-.285-2.098 5.165 5.165 0 00-.864-1.751 4.23 4.23 0 00-1.464-1.201 4.554 4.554 0 00-2.083-.448 3.996 3.996 0 00-2.642.926c-.294.247-.546.54-.747.866a3.97 3.97 0 00-.406.856h-.062v-2.403h-.004zm2.007 9.64a3.18 3.18 0 01-1.18-1.058 4.374 4.374 0 01-.621-1.527 8.66 8.66 0 01-.184-1.801 7.849 7.849 0 01.204-1.803c.124-.549.35-1.07.664-1.537a3.457 3.457 0 011.192-1.08 4.083 4.083 0 013.577.011c.484.268.899.645 1.213 1.1.32.472.554.996.692 1.55a7.19 7.19 0 01-.01 3.603 4.532 4.532 0 01-.713 1.517 3.48 3.48 0 01-1.223 1.038 3.772 3.772 0 01-1.763.388 3.88 3.88 0 01-1.844-.402l-.004.002zm24.52-9.559a4.94 4.94 0 00-.509-2.055 3.982 3.982 0 00-1.189-1.395 5.061 5.061 0 00-1.728-.794 8.48 8.48 0 00-2.124-.255 7.26 7.26 0 00-1.728.214 5.05 5.05 0 00-1.575.671 3.578 3.578 0 00-1.138 1.202 3.454 3.454 0 00-.438 1.782 3.081 3.081 0 00.427 1.696c.285.442.668.811 1.119 1.08a6.216 6.216 0 001.585.664c.596.163 1.2.306 1.809.428.624.122 1.23.254 1.82.396a7.24 7.24 0 011.585.57c.444.22.831.54 1.128.937.3.44.45.965.427 1.497a2.822 2.822 0 01-.417 1.588 3.38 3.38 0 01-1.037 1.018 4.31 4.31 0 01-1.361.55 6.53 6.53 0 01-1.393.163 8.749 8.749 0 01-2.053-.235 4.662 4.662 0 01-1.696-.764 3.652 3.652 0 01-1.128-1.353 4.068 4.068 0 01-.346-2.026h-.894a5.194 5.194 0 00.457 2.382c.301.63.751 1.18 1.31 1.598a5.368 5.368 0 001.952.896c.786.188 1.591.28 2.4.275a7.55 7.55 0 001.737-.214 5.1 5.1 0 001.646-.703 4.11 4.11 0 001.23-1.262 3.518 3.518 0 00.488-1.913 3.339 3.339 0 00-.427-1.762 3.434 3.434 0 00-1.128-1.14 6.248 6.248 0 00-1.585-.692c-.59-.17-1.197-.315-1.82-.438a75.177 75.177 0 01-1.81-.386 7.344 7.344 0 01-1.584-.54 3.107 3.107 0 01-1.119-.886 2.26 2.26 0 01-.426-1.425 2.715 2.715 0 01.386-1.497 2.96 2.96 0 01.986-.959 4.137 4.137 0 011.3-.498c.432-.092.87-.14 1.312-.144a6.88 6.88 0 011.84.235 4.211 4.211 0 011.453.702c.404.31.734.707.965 1.16a3.91 3.91 0 01.396 1.63h.895v.002zm6.239-.08h-2.27v-3.258h-.771v3.258h-1.931v.672h1.93v7.31c-.046.477.028.959.215 1.401.147.316.383.581.68.764.301.175.638.28.986.305a7.11 7.11 0 001.149.01v-.672a7.176 7.176 0 01-.966-.02 1.537 1.537 0 01-.711-.234 1.13 1.13 0 01-.438-.56 2.821 2.821 0 01-.142-.998v-7.309h2.276v-.672l-.007.002zm.644 7.35c.194.633.508 1.225.925 1.74.41.498.923.9 1.504 1.18a5.03 5.03 0 004.106 0 4.435 4.435 0 001.504-1.18 5.16 5.16 0 00.926-1.74 7.04 7.04 0 00.315-2.118 6.94 6.94 0 00-.315-2.108 5.294 5.294 0 00-.926-1.74 4.39 4.39 0 00-1.504-1.191 5.036 5.036 0 00-4.106 0 4.399 4.399 0 00-1.504 1.191 5.31 5.31 0 00-.925 1.74 6.878 6.878 0 00-.315 2.108 6.982 6.982 0 00.319 2.119l-.004-.002zm.722-3.92a4.857 4.857 0 01.773-1.537c.335-.446.765-.81 1.26-1.069a3.951 3.951 0 013.455 0c.494.258.925.623 1.26 1.07.346.462.608.982.773 1.536a6.284 6.284 0 010 3.604 4.904 4.904 0 01-.773 1.537c-.335.446-.766.81-1.26 1.069a3.952 3.952 0 01-3.455 0 3.736 3.736 0 01-1.26-1.07 4.857 4.857 0 01-.773-1.536 6.264 6.264 0 01.004-3.603l-.004-.001zm11.14-3.43h-.772v10.465h.772v-5.721c.008-.342.042-.682.102-1.018.047-.265.121-.524.221-.774a2.84 2.84 0 01.356-.632c.155-.205.321-.402.498-.59a3.388 3.388 0 011.494-.896c.452-.13.925-.17 1.392-.122v-.774a4.86 4.86 0 00-1.372.153 4.527 4.527 0 00-1.199.499 3.646 3.646 0 00-.915.774 2.553 2.553 0 00-.516.959h-.061V25.59zm13.618 5.334c0-.054 0-.126.011-.214.01-.089.009-.166.009-.234a6.487 6.487 0 00-.295-1.985 4.932 4.932 0 00-.864-1.629 4.065 4.065 0 00-1.412-1.107 4.417 4.417 0 00-1.942-.407 4.468 4.468 0 00-2.083.458c-.576.294-1.08.71-1.476 1.222a5.304 5.304 0 00-.885 1.77 7.471 7.471 0 00-.295 2.107c-.005.72.09 1.436.285 2.129a4.84 4.84 0 00.864 1.71c.389.484.882.874 1.443 1.14a4.61 4.61 0 002.022.417 4.531 4.531 0 003.039-.977 4.69 4.69 0 001.495-2.81h-.773a4.323 4.323 0 01-1.263 2.29 3.586 3.586 0 01-2.487.826 3.67 3.67 0 01-1.681-.37 3.426 3.426 0 01-1.203-.997 4.495 4.495 0 01-.724-1.466 6.208 6.208 0 01-.245-1.75v-.123h8.46zm-8.435-.672a6.352 6.352 0 01.329-1.59c.164-.494.42-.953.754-1.354a3.75 3.75 0 011.202-.937 3.658 3.658 0 011.651-.356c.54-.01 1.075.11 1.56.347a3.6 3.6 0 011.161.926c.325.397.57.854.723 1.344.166.524.262 1.069.286 1.618h-7.663l-.003.002zM28.004 15.206c3.229 0 5.294 3.099 5.294 3.099a6.406 6.406 0 00-3.15 5.385 5.975 5.975 0 003.957 5.646s-3.124 7.357-6.63 7.357c-1.972 0-2.105-1.126-4.722-1.126-2.276 0-3.044 1.126-4.777 1.126-3.308 0-7.582-7.171-7.582-13.003 0-6.058 4.326-8.484 7.04-8.484 2.381 0 3.374 1.391 5.293 1.391 1.611 0 2.882-1.39 5.277-1.39zm-.556-6.177c.476 2.969-2.236 6.639-5.479 6.522-.476-3.78 3.019-6.323 5.48-6.522z" fill="#fff"/><defs><linearGradient id="paint0_linear_3405_9654" x1="74.931" y1="1" x2="74.931" y2="45.262" gradientUnits="userSpaceOnUse"><stop stop-color="#A7ACB1"/><stop offset=".099" stop-color="#BABFC3"/></linearGradient></defs></svg>