<svg width="21" height="20" viewBox="0 0 21 20" fill="none" xmlns="http://www.w3.org/2000/svg">
<path d="M18.0254 6.89552L13.0524 6.17481L10.8293 1.68067C10.7686 1.55762 10.6687 1.45802 10.5453 1.39747C10.2358 1.24512 9.85975 1.37208 9.70502 1.68067L7.48194 6.17481L2.50891 6.89552C2.3718 6.91505 2.24645 6.9795 2.15047 7.07716C2.03444 7.19607 1.97051 7.35606 1.97271 7.52196C1.97491 7.68787 2.04308 7.84611 2.16222 7.96192L5.76028 11.46L4.91022 16.3994C4.89029 16.5143 4.90304 16.6325 4.94703 16.7405C4.99102 16.8486 5.06449 16.9422 5.1591 17.0107C5.25372 17.0792 5.3657 17.1199 5.48234 17.1282C5.59899 17.1365 5.71563 17.1121 5.81904 17.0576L10.2672 14.7256L14.7153 17.0576C14.8367 17.1221 14.9777 17.1436 15.1129 17.1201C15.4537 17.0615 15.6828 16.7393 15.6241 16.3994L14.774 11.46L18.3721 7.96192C18.47 7.86622 18.5346 7.74122 18.5542 7.6045C18.6071 7.2627 18.3682 6.9463 18.0254 6.89552V6.89552Z" fill="#EDC5A2"/>
</svg>
