<svg width="34" height="34" viewBox="0 0 34 34" fill="none" xmlns="http://www.w3.org/2000/svg">
<path fill-rule="evenodd" clip-rule="evenodd" d="M21.2136 11.3138L16.9709 15.5565L12.7283 11.3138C12.3373 10.9228 11.7044 10.9235 11.3141 11.3138C10.9238 11.7042 10.9231 12.337 11.3141 12.7281L15.5567 16.9707L11.3141 21.2133C10.9238 21.6037 10.9231 22.2365 11.3141 22.6276C11.7051 23.0186 12.338 23.0179 12.7283 22.6276L16.9709 18.3849L21.2136 22.6276C21.6046 23.0186 22.2375 23.0179 22.6278 22.6276C23.0181 22.2372 23.0188 21.6044 22.6278 21.2133L18.3851 16.9707L22.6278 12.7281C23.0181 12.3377 23.0188 11.7049 22.6278 11.3138C22.2368 10.9228 21.6039 10.9235 21.2136 11.3138Z" fill="white"/>
</svg>
