<svg width="22" height="22" fill="none" xmlns="http://www.w3.org/2000/svg"><path d="M20.687 10.466l-2.125 1.062-2.75-5.266 2.146-1.073a.687.687 0 01.917.296l2.114 4.048a.687.687 0 01-.302.933v0zm-17.249.97l-2.124-1.062a.687.687 0 01-.302-.933l2.113-4.048a.687.687 0 01.917-.296l2.146 1.072-2.75 5.267z" stroke="#fff" stroke-width="1.5" stroke-linecap="round" stroke-linejoin="round"/><path d="M18.563 11.528l-1.375 1.609-3.163 3.162a.688.688 0 01-.653.18l-4.98-1.244a.685.685 0 01-.257-.126l-4.697-3.673" stroke="#fff" stroke-width="1.5" stroke-linecap="round" stroke-linejoin="round"/><path d="M17.188 13.137l-3.781-2.75-1.1.825a2.75 2.75 0 01-3.3 0l-.466-.35a.687.687 0 01-.074-1.036l3.363-3.363a.687.687 0 01.486-.201h3.497" stroke="#fff" stroke-width="1.5" stroke-linecap="round" stroke-linejoin="round"/><path d="M6.237 6.17l4.41-1.286a.688.688 0 01.476.034l2.971 1.344M9.625 18.293l-2.59-.648a.689.689 0 01-.284-.148l-1.939-1.684" stroke="#fff" stroke-width="1.5" stroke-linecap="round" stroke-linejoin="round"/></svg>