<svg width="149" height="45" fill="none" xmlns="http://www.w3.org/2000/svg"><path fill-rule="evenodd" clip-rule="evenodd" d="M41.988 35.057h.96l1.849-4.663h6.951l1.83 4.663h.955l-5.732-14.538h-.976l-5.837 14.538zm3.09-5.437l3.233-8.225h.04l3.11 8.225H45.08zm11.058-5.029h-.752v14.212h.752v-5.925h.04a3.33 3.33 0 001.488 1.853 4.675 4.675 0 002.323.57 4.964 4.964 0 002.088-.407 3.984 3.984 0 001.467-1.13c.401-.51.696-1.095.866-1.721a7.963 7.963 0 00.285-2.198 7.616 7.616 0 00-.284-2.098 5.166 5.166 0 00-.864-1.751 4.238 4.238 0 00-1.464-1.2 4.554 4.554 0 00-2.083-.449 3.996 3.996 0 00-2.642.926c-.296.246-.55.538-.753.865a4.005 4.005 0 00-.406.856h-.06v-2.402zm2.007 9.64a3.18 3.18 0 01-1.18-1.058 4.357 4.357 0 01-.621-1.527 8.647 8.647 0 01-.184-1.801 7.842 7.842 0 01.204-1.802c.124-.55.35-1.07.664-1.538a3.45 3.45 0 011.192-1.08 4.085 4.085 0 013.577.011c.484.268.899.644 1.212 1.1.32.472.555.996.694 1.55a7.19 7.19 0 01-.01 3.603 4.53 4.53 0 01-.714 1.517c-.32.436-.738.79-1.219 1.037a3.772 3.772 0 01-1.763.387 3.88 3.88 0 01-1.848-.4l-.004.002zm9.782-9.64h-.752v14.212h.752v-5.925h.04c.251.78.78 1.44 1.487 1.853a4.676 4.676 0 002.323.57 4.964 4.964 0 002.088-.407 3.968 3.968 0 001.467-1.13 4.82 4.82 0 00.866-1.721 7.966 7.966 0 00.286-2.198 7.613 7.613 0 00-.285-2.098 5.165 5.165 0 00-.864-1.75 4.229 4.229 0 00-1.464-1.202 4.552 4.552 0 00-2.083-.448 3.996 3.996 0 00-2.642.926c-.294.247-.546.54-.747.866a3.948 3.948 0 00-.406.856h-.062v-2.403h-.004zm2.007 9.64a3.179 3.179 0 01-1.18-1.058 4.373 4.373 0 01-.621-1.527 8.66 8.66 0 01-.184-1.801 7.847 7.847 0 01.204-1.802c.124-.55.35-1.07.664-1.538a3.458 3.458 0 011.192-1.08 4.084 4.084 0 013.577.011c.484.268.899.645 1.213 1.1.32.472.554.996.692 1.55a7.19 7.19 0 01-.01 3.603 4.532 4.532 0 01-.713 1.517 3.48 3.48 0 01-1.223 1.038 3.772 3.772 0 01-1.763.388 3.88 3.88 0 01-1.844-.402l-.004.002zm24.52-9.558a4.94 4.94 0 00-.509-2.056 3.983 3.983 0 00-1.189-1.395 5.061 5.061 0 00-1.728-.794 8.48 8.48 0 00-2.124-.255 7.26 7.26 0 00-1.728.214c-.56.133-1.092.36-1.575.672a3.576 3.576 0 00-1.138 1.201 3.453 3.453 0 00-.438 1.782 3.081 3.081 0 00.427 1.697c.285.44.668.81 1.119 1.079a6.217 6.217 0 001.585.664c.596.163 1.2.306 1.809.428.624.122 1.23.254 1.82.396.548.128 1.08.32 1.585.57.444.22.831.54 1.128.937.3.44.45.965.427 1.497a2.822 2.822 0 01-.417 1.588 3.38 3.38 0 01-1.037 1.018 4.31 4.31 0 01-1.361.55 6.523 6.523 0 01-1.393.163 8.749 8.749 0 01-2.053-.235 4.664 4.664 0 01-1.696-.764 3.651 3.651 0 01-1.128-1.353 4.068 4.068 0 01-.346-2.026h-.894c-.038.82.119 1.635.457 2.382a4.32 4.32 0 001.31 1.598 5.368 5.368 0 001.952.896c.786.188 1.591.28 2.4.275a7.556 7.556 0 001.737-.213 5.1 5.1 0 001.646-.703 4.108 4.108 0 001.23-1.263 3.518 3.518 0 00.488-1.913 3.339 3.339 0 00-.427-1.762 3.434 3.434 0 00-1.128-1.14 6.248 6.248 0 00-1.585-.692c-.59-.17-1.197-.315-1.82-.438a75.664 75.664 0 01-1.81-.386 7.338 7.338 0 01-1.584-.54 3.107 3.107 0 01-1.119-.886 2.26 2.26 0 01-.426-1.425 2.715 2.715 0 01.386-1.497 2.96 2.96 0 01.986-.959 4.135 4.135 0 011.3-.498 6.5 6.5 0 011.312-.143 6.88 6.88 0 011.84.234 4.211 4.211 0 011.453.702c.404.31.734.707.965 1.16.248.509.384 1.064.396 1.63h.895v.003zm6.239-.081h-2.27v-3.258h-.771v3.258h-1.931v.672h1.93v7.31c-.046.477.028.959.215 1.401.147.316.383.581.68.764.301.175.639.28.986.305a7.11 7.11 0 001.149.01v-.672a7.195 7.195 0 01-.966-.02 1.54 1.54 0 01-.711-.234 1.131 1.131 0 01-.438-.56 2.821 2.821 0 01-.142-.997v-7.31h2.276v-.672l-.007.003zm.644 7.35c.194.634.508 1.225.925 1.74.41.498.923.901 1.504 1.18a5.03 5.03 0 004.106 0 4.434 4.434 0 001.504-1.18 5.16 5.16 0 00.926-1.74 7.04 7.04 0 00.315-2.118 6.94 6.94 0 00-.315-2.108 5.295 5.295 0 00-.926-1.74 4.392 4.392 0 00-1.504-1.191 5.037 5.037 0 00-4.106 0 4.401 4.401 0 00-1.504 1.191 5.311 5.311 0 00-.925 1.74 6.878 6.878 0 00-.315 2.108 6.983 6.983 0 00.319 2.119l-.004-.002zm.722-3.92a4.858 4.858 0 01.773-1.537c.335-.446.765-.81 1.26-1.069a3.952 3.952 0 013.455 0c.494.258.925.623 1.26 1.07.346.462.608.982.773 1.536a6.283 6.283 0 010 3.604 4.903 4.903 0 01-.773 1.537c-.335.446-.766.81-1.26 1.069a3.952 3.952 0 01-3.455 0 3.737 3.737 0 01-1.26-1.07 4.855 4.855 0 01-.773-1.536 6.264 6.264 0 01.004-3.604h-.004zm11.14-3.43h-.772v10.465h.772v-5.721c.008-.342.042-.682.102-1.018.047-.265.121-.524.221-.774a2.84 2.84 0 01.356-.632c.155-.205.321-.402.498-.59a3.387 3.387 0 011.494-.896c.452-.13.925-.17 1.392-.122v-.774a4.857 4.857 0 00-1.372.153 4.524 4.524 0 00-1.199.499 3.646 3.646 0 00-.915.774 2.554 2.554 0 00-.516.959h-.061V24.59zm13.618 5.334c0-.054 0-.126.011-.214.01-.089.009-.166.009-.234a6.486 6.486 0 00-.295-1.985 4.932 4.932 0 00-.864-1.629 4.066 4.066 0 00-1.412-1.107 4.419 4.419 0 00-1.942-.407 4.47 4.47 0 00-2.083.458c-.576.294-1.08.71-1.476 1.222a5.304 5.304 0 00-.885 1.77 7.47 7.47 0 00-.295 2.107c-.005.72.09 1.436.285 2.129a4.84 4.84 0 00.864 1.71c.389.484.882.874 1.443 1.14a4.61 4.61 0 002.022.417 4.53 4.53 0 003.039-.977 4.69 4.69 0 001.495-2.81h-.773a4.323 4.323 0 01-1.263 2.29 3.586 3.586 0 01-2.487.826 3.67 3.67 0 01-1.681-.37 3.426 3.426 0 01-1.203-.997 4.497 4.497 0 01-.724-1.466 6.207 6.207 0 01-.245-1.75v-.123h8.46zm-8.435-.672a6.353 6.353 0 01.329-1.59c.164-.494.42-.953.754-1.354a3.75 3.75 0 011.202-.937 3.658 3.658 0 011.651-.356c.54-.01 1.075.11 1.56.347a3.6 3.6 0 011.161.926c.325.397.57.854.723 1.344.166.524.262 1.069.286 1.618h-7.663l-.003.002zM27.004 14.206c3.229 0 5.294 3.099 5.294 3.099a6.406 6.406 0 00-3.15 5.385 5.975 5.975 0 003.957 5.646s-3.124 7.357-6.63 7.357c-1.972 0-2.105-1.126-4.722-1.126-2.276 0-3.044 1.126-4.777 1.126-3.308 0-7.582-7.171-7.582-13.003 0-6.058 4.326-8.484 7.04-8.484 2.381 0 3.374 1.391 5.293 1.391 1.611 0 2.882-1.39 5.277-1.39zm-.556-6.177c.476 2.969-2.236 6.639-5.479 6.522-.476-3.78 3.019-6.323 5.48-6.522z" fill="#fff"/></svg>