<svg width="149" height="45" fill="none" xmlns="http://www.w3.org/2000/svg"><path fill-rule="evenodd" clip-rule="evenodd" d="M113.036 35.582h-1.129V23.14h1.129v12.442zm9.035-1.131v-5.656s-.314-2.32-3.737-2.32c-3.424 0-3.521 2.509-3.521 2.509h1.085s-.053-1.715 2.41-1.715c2.462 0 2.633 1.526 2.633 1.526v1.131h-2.258c-2.872 0-4.24 1.612-4.24 3.157 0 1.546.86 2.643 2.965 2.643a5.739 5.739 0 003.533-1.275v1.13h1.13v-1.13zm-1.13-2.263c0 1.785-2.356 2.68-3.441 2.68s-1.985-.517-1.985-1.705c0-1.189 1.447-2.105 3.172-2.105h2.258v1.13h-.004zm2.259-5.655h1.13l2.88 7.678 2.765-7.678h1.13s-3 10.386-3.388 11.311c-.388.925-1.998 1.371-3.136 1.371a2.358 2.358 0 01-1.023-.3l.283-.793c.238.106.498.154.758.142.503 0 1.376-1.163 1.376-1.163l.636-1.515-3.411-9.053zm-16.556-.057a3.073 3.073 0 00-2.642 1.188v-1.13h-1.129v12.441h1.129v-4.524c.035.057.484 1.275 2.668 1.275 2.224 0 3.944-1.427 3.944-4.696 0-3.269-2.061-4.554-3.97-4.554zm-.156 8.43c-1.824 0-2.448-2.66-2.483-2.718v-2.261c.035-.048.839-2.605 2.616-2.605 1.614 0 2.964 1.638 2.964 3.779 0 2.14-1.247 3.806-3.097 3.806zM55.231 24.143s-1.468-1.492-5.142-1.492a6.8 6.8 0 00-7.072 6.678c0 2.838 1.965 6.423 6.851 6.423a20.345 20.345 0 005.363-.928v-2.202c0-1.082 1.345-1.564 1.345-1.564H52.06l-1.383.873a16.519 16.519 0 012.7-.164v2.73a4.795 4.795 0 01-2.185.491 6.414 6.414 0 01-6.282-6.386c0-3.721 2.663-5.295 4.977-5.295a4.82 4.82 0 013.62 1.71l-.423.692.68-.183 1.468-1.383zm6.219 2.368a4.6 4.6 0 00-4.758 4.674 4.453 4.453 0 004.467 4.402c2.855 0 4.855-1.9 4.855-4.574a4.357 4.357 0 00-4.567-4.502h.003zm.194 8.494c-2.164 0-3.185-3.336-3.185-5.023 0-1.687 1.146-2.889 2.467-2.889 1.884 0 3.184 2.22 3.184 4.81-.003.891-.305 3.102-2.469 3.102h.003zm10.008-8.49a4.6 4.6 0 00-4.756 4.672 4.45 4.45 0 004.465 4.4c2.854 0 4.853-1.9 4.853-4.574a4.352 4.352 0 00-4.565-4.497h.003zm.194 8.49c-2.162 0-3.183-3.333-3.183-5.016 0-1.683 1.145-2.888 2.465-2.888 1.883 0 3.184 2.219 3.184 4.807-.003.888-.306 3.097-2.47 3.097h.004zm11.897-.062c-.936-.645-1.119-.953-1.119-1.233 0-.28.01-.505.675-1.136a3.212 3.212 0 001.274-2.484 3.108 3.108 0 00-1.196-2.562l1.138-.039 1.138-.674h-4.437a3.865 3.865 0 00-3.993 3.64c0 1.329 1.128 2.918 3.356 2.918a1.4 1.4 0 00.386-.048 1.8 1.8 0 00-.135.684c.044.452.237.875.55 1.204 0 0-5.141.005-5.141 3.294 0 1.988 2.247 2.735 4.09 2.735 1.841 0 4.996-.992 4.996-3.525a3.32 3.32 0 00-1.585-2.774h.003zm-2.44-2.147c-1.346 0-2.417-2.008-2.417-3.222 0-1.213.608-2.08 1.678-2.08 1.07 0 2.345 1.227 2.345 3.467-.003.78-.264 1.835-1.61 1.835h.004zm-.101 7.628c-.623 0-3.27-.246-3.27-2.341s3.052-2.287 3.406-2.287c.22 0 .441.018.659.05.94.832 1.982 1.243 1.982 2.543-.003 1.861-2.158 2.038-2.78 2.038l.003-.003zm4.735-17.283l.757-1.146 2.631.014c-.65.346-1.112.65-1.13 2.263-.016 1.613 0 9.049 0 9.049a1.866 1.866 0 001.292 1.516c.217-.01.435.019.641.086l-.803.664h-3.388s1.123-.7 1.13-1.131V23.14h-1.13zm11.803 5.73a3.178 3.178 0 00-3.315-2.394 4.248 4.248 0 00-4.328 4.438c0 2.199 1.307 4.672 4.562 4.672a3.971 3.971 0 003.315-1.697 5.149 5.149 0 01-2.301.642c-1.813 0-3.919-1.907-3.919-4.71 0-1.89 1.319-2.648 2.145-2.648a1.633 1.633 0 011.814 1.752c-.148.263-3.9 1.79-3.9 1.79l1.501-.077 4.427-1.769zm-62.336-5.534l-5.134 2.865-4.115-4.095 4.115-4.095 5.134 2.864a1.328 1.328 0 010 2.461zm-9.916-1.896L11.975 7.994c.396.07.777.213 1.122.422 1.662.935 10.293 5.754 16.318 9.117l-3.927 3.908zM10.912 35.945a2.17 2.17 0 01-.577-1.328V9.59c.035-.494.239-.961.577-1.324l13.906 13.838-13.906 13.84zm14.576-13.172l3.927 3.91C23.39 30.046 14.76 34.865 13.097 35.8a3.28 3.28 0 01-1.122.422l13.513-13.449z" fill="#fff"/></svg>