<svg width="19" height="23" fill="none" xmlns="http://www.w3.org/2000/svg"><path d="M5.528 15.277l.054-.2-.103-.18a7.03 7.03 0 01-.927-3.45c0-3.836 3.12-6.947 6.974-6.947 1.853 0 3.608.728 4.926 2.042 1.311 1.306 1.997 3.053 2.048 4.86-.004 3.834-3.122 6.942-6.974 6.942a7.142 7.142 0 01-3.322-.829l-.172-.09-.187.05-3.136.822.819-3.02zm7.015.125l.032.013.032.008c.487.12.972.122 1.348.06.283-.041.625-.199.903-.381.27-.177.606-.459.742-.822a2.61 2.61 0 00.162-.702 1.484 1.484 0 00-.05-.57l-.038-.112-.084-.084a1.045 1.045 0 00-.235-.167 6.67 6.67 0 00-.239-.123c-.13-.08-.409-.223-.65-.343-.139-.07-.28-.138-.397-.193a3.293 3.293 0 00-.295-.127l-.013-.005a1.045 1.045 0 00-.418-.064.697.697 0 00-.355.134.8.8 0 00-.236.29 2.357 2.357 0 01-.227.31c-.066.08-.13.154-.18.208a10.81 10.81 0 00-.054-.025 4.979 4.979 0 01-1.27-.801 4.978 4.978 0 01-.85-1.013 1.694 1.694 0 00.064-.083l.02-.024c.045-.06.08-.102.108-.13l-.352-.354.352.354a1.53 1.53 0 00.298-.432l.005-.01a.83.83 0 000-.761l-.036-.073-.007-.007a20.012 20.012 0 01-.3-.718 34.415 34.415 0 00-.22-.53c-.1-.235-.246-.444-.48-.55-.203-.092-.455-.065-.397-.065h0-.002 0-.001 0-.002 0-.002 0-.001 0-.002 0-.002 0-.001 0-.002 0-.002 0-.002 0-.002 0-.002 0-.001 0H9.2h0-.002 0-.002 0-.002 0-.002 0-.002 0-.002 0-.002 0-.001 0-.002 0-.002 0-.002 0-.002 0-.002 0-.001 0-.002 0-.002 0-.002 0-.002 0-.001 0-.002 0-.002 0-.001 0-.002 0-.002 0-.001 0-.002 0-.002 0-.001 0-.002 0-.002 0-.001 0-.002 0-.002 0-.001 0-.002 0-.001 0-.002 0-.002 0-.001 0-.002 0-.001 0-.002 0-.001 0-.003 0-.002 0-.002 0-.001 0-.002 0-.001 0-.002 0-.001 0-.002 0-.001 0-.002 0-.001 0-.002 0-.001 0H9.1h0-.002 0-.001 0-.002 0-.001 0-.002 0-.001 0-.002 0-.001 0-.002 0-.002 0-.002 0-.001 0-.002 0-.001 0-.002 0-.001 0-.002 0-.001 0-.002 0-.002 0-.002 0-.001 0-.002 0-.001 0-.002 0-.001 0-.002 0-.002 0-.002 0-.001 0-.002 0-.001 0-.002 0-.001 0-.002 0-.002 0-.002 0-.001 0-.002 0-.001 0-.002 0-.001 0-.002 0-.002 0-.002 0-.001 0-.002 0-.001 0-.002 0-.001 0-.002 0-.002 0-.002 0-.001 0-.002 0-.001 0-.002 0-.001 0-.002 0-.001 0-.002 0H9h0-.002 0-.002 0-.003 0-.002 0-.001 0-.002 0-.001 0-.002 0-.001 0-.002 0-.001 0-.002 0-.001 0-.002 0-.001 0-.002 0-.001 0-.002 0-.001 0-.003 0-.002 0-.002 0-.001 0-.002 0-.001 0-.002 0-.001 0-.002 0-.001 0-.002 0-.002 0-.001 0-.002 0-.001 0-.002 0-.002 0-.001 0-.002 0-.002 0-.001 0-.002 0-.002 0-.001 0-.002 0-.002 0-.001 0-.002 0-.002 0-.001 0-.002 0-.002 0-.002 0-.002 0-.001 0-.002 0-.002 0-.002 0-.002 0H8.9h0-.002 0-.002 0-.002 0-.002 0-.002 0-.002 0-.002 0-.001 0-.002 0-.002 0-.002 0-.002 0-.002 0-.001 0-.002 0-.002 0-.001 0-.002 0-.002 0-.001 0-.002 0-.017c-.164 0-.598-.001-.907.408l-.028.034c-.071.084-.25.295-.382.532a2.618 2.618 0 00-.317 1.297c0 .582.208 1.12.409 1.507.174.334.367.601.48.729.192.291 1.437 2.147 3.375 2.959.316.156.633.269.859.35.084.03.156.055.21.076zm-.282-2.58l.002-.002a.008.008 0 01-.002.002z" fill="#fff" stroke="#fff"/></svg>